Coordinates
version=1
nRows=7
nColumns=46
inDegrees=yes

Units are S.I. units (second, meters, Newtons, ...)
Angles are in degrees.

endheader
time	pelvis_tilt	pelvis_list	pelvis_rotation	pelvis_tx	pelvis_ty	pelvis_tz	bb_angle	bb_tx	bb_ty	bb_tz	hip_flexion_r	hip_adduction_r	hip_rotation_r	knee_angle_r	knee_angle_r_beta	ankle_angle_r	subtalar_angle_r	mtp_angle_r	crank_angle_r	hip_flexion_l	hip_adduction_l	hip_rotation_l	knee_angle_l	knee_angle_l_beta	ankle_angle_l	subtalar_angle_l	mtp_angle_l	crank_angle_l	lumbar_extension	lumbar_bending	lumbar_rotation	arm_flex_r	arm_add_r	arm_rot_r	elbow_flex_r	pro_sup_r	wrist_flex_r	wrist_dev_r	arm_flex_l	arm_add_l	arm_rot_l	elbow_flex_l	pro_sup_l	wrist_flex_l	wrist_dev_l
      2.50500000	    -26.14655213	     -0.06226024	    -16.60050613	      0.40299120	      1.21296671	     -0.24213559	      0.00000000	      0.50000000	      0.00000000	      0.25000000	     67.04796476	      9.43807486	      4.25960527	     73.86888872	      1.28925532	     11.26585148	     -5.91853515	      0.00000000	      0.00000000	     36.83162126	    -15.64504261	     -8.64224791	     52.13712737	      0.90996454	    -28.98848436	     -1.63807186	      0.00000000	      0.00000000	    -65.35325949	     -5.55862025	     10.41450991	     53.02843622	    -32.72921969	     34.24248623	     98.61050585	     50.66552744	      0.00000000	      0.00000000	     40.69628006	    -18.41823200	     11.61969016	     82.83910619	     51.91361846	      0.00000000	      0.00000000
      2.51000000	    -25.85768192	      0.83646585	    -16.18759076	      0.40250509	      1.21203364	     -0.24159255	      0.00000000	      0.50000000	      0.00000000	      0.25000000	     66.06358910	      8.61582619	      4.97553513	     71.88791733	      1.25468085	     10.44834866	     -5.82094867	      0.00000000	      0.00000000	     37.75847960	    -14.85060567	     -8.61048664	     54.52880489	      0.95170718	    -28.26665964	     -1.82364197	      0.00000000	      0.00000000	    -65.42670299	     -5.92147421	      9.71568314	     52.60686582	    -32.84937732	     33.94388430	     98.83576160	     50.67309655	      0.00000000	      0.00000000	     41.08647230	    -18.40302931	     11.85966371	     82.73454136	     51.92360621	      0.00000000	      0.00000000
      2.51500000	    -25.93923859	      1.61938802	    -15.56226114	      0.40161013	      1.21020454	     -0.24115171	      0.00000000	      0.50000000	      0.00000000	      0.25000000	     65.50597372	      7.74405585	      5.43020874	     70.02269057	      1.22212650	      9.46298499	     -6.01453175	      0.00000000	      0.00000000	     39.21702053	    -14.15251256	     -8.27312980	     57.06628723	      0.99599460	    -27.32749284	     -1.81864854	      0.00000000	      0.00000000	    -65.08623803	     -6.27927584	     11.03931817	     49.19928792	    -34.52628412	     29.66620735	    101.53893939	     50.62059539	      0.00000000	      0.00000000	     43.35679221	    -17.27490028	     15.31115504	     80.45854005	     52.03040558	      0.00000000	      0.00000000
      2.52000000	    -25.68298331	      2.42910404	    -15.06013100	      0.40100130	      1.20878417	     -0.24066295	      0.00000000	      0.50000000	      0.00000000	      0.25000000	     64.59802465	      6.83744960	      5.93114679	     68.23810258	      1.19097957	      8.58717111	     -5.93579947	      0.00000000	      0.00000000	     40.17031664	    -13.41957712	     -8.24178180	     59.46858094	      1.03792254	    -26.33210357	     -2.08938827	      0.00000000	      0.00000000	    -65.11889949	     -6.51679498	     10.29582888	     48.88547817	    -34.56481022	     29.53576310	    101.62362606	     50.61890197	      0.00000000	      0.00000000	     43.63297999	    -17.25683055	     15.47432668	     80.40262810	     52.04352078	      0.00000000	      0.00000000
      2.52500000	    -25.63365803	      3.13828488	    -14.34173080	      0.40021216	      1.20676472	     -0.24055149	      0.00000000	      0.50000000	      0.00000000	      0.25000000	     63.90642979	      5.85539627	      6.24733801	     66.50405062	      1.16071465	      7.39205233	     -6.10291949	      0.00000000	      0.00000000	     41.46271021	    -12.68828865	     -7.95214573	     61.98401349	      1.08182512	    -25.11972037	     -2.21092257	      0.00000000	      0.00000000	    -64.92409172	     -6.47051862	      9.64883838	     48.40426684	    -34.42107657	     29.07291809	    101.85054985	     50.60353594	      0.00000000	      0.00000000	     43.90430147	    -17.49510303	     15.92978463	     80.29990241	     52.08772091	      0.00000000	      0.00000000
      2.53000000	    -25.50375820	      3.77559076	    -13.67676450	      0.39961605	      1.20483925	     -0.24030804	      0.00000000	      0.50000000	      0.00000000	      0.25000000	     63.03306983	      4.98624703	      6.63190160	     64.71243534	      1.12944506	      6.19738663	     -6.21831762	      0.00000000	      0.00000000	     42.58514778	    -12.09881420	     -7.85806237	     64.41959876	      1.12433410	    -23.93639479	     -2.46296204	      0.00000000	      0.00000000	    -64.79520095	     -6.50374494	      9.00774612	     47.90016204	    -34.29918700	     28.70604566	    101.98832521	     50.58709240	      0.00000000	      0.00000000	     44.14797942	    -17.60496388	     16.54176817	     80.29877401	     52.16160530	      0.00000000	      0.00000000
      2.53500000	    -25.60083903	      4.14862813	    -12.95282932	      0.39884992	      1.20228013	     -0.23982936	      0.00000000	      0.50000000	      0.00000000	      0.25000000	     62.31339834	      4.32095400	      6.72084725	     62.89722677	      1.09776370	      4.62751506	     -7.00848057	      0.00000000	      0.00000000	     44.03127282	    -11.79783007	     -7.49099692	     66.99415840	      1.16926864	    -22.67898542	     -2.46667927	      0.00000000	      0.00000000	    -64.39541994	     -6.49681652	      9.46834481	     45.76828169	    -34.63591310	     26.16080567	    103.10375819	     50.46972723	      0.00000000	      0.00000000	     45.28581336	    -18.02227200	     19.45606859	     79.67098527	     52.43661835	      0.00000000	      0.00000000
